<svg xmlns="http://www.w3.org/2000/svg" xmlns:xlink="http://www.w3.org/1999/xlink" width="1122" zoomAndPan="magnify" viewBox="0 0 841.92 595.499987" height="793" preserveAspectRatio="xMidYMid meet" version="1.0"><defs><clipPath id="d7d92abaf4"><path d="M 0.3125 0 L 841.527344 0 L 841.527344 594.777344 L 0.3125 594.777344 Z M 0.3125 0 " clip-rule="nonzero"/></clipPath><clipPath id="9ecb9aba2a"><path d="M 3.9375 28.679688 C 17.523438 28.304688 28.542969 17.285156 28.917969 3.621094 L 80.9375 3.621094 L 80.9375 0 L 25.144531 0 L 25.21875 1.886719 L 25.21875 2.945312 C 25.21875 15.09375 15.332031 25.058594 3.105469 25.058594 L 2.125 25.058594 L 0.3125 24.984375 L 0.3125 49.71875 L 3.9375 49.71875 Z M 12.011719 35.625 C 23.636719 32.453125 32.769531 23.398438 35.863281 11.699219 L 80.9375 11.699219 L 80.9375 10.792969 L 35.109375 10.792969 L 35.03125 11.171875 C 32.089844 22.792969 23.03125 31.851562 11.410156 34.871094 L 11.03125 34.945312 L 11.03125 49.71875 L 11.9375 49.71875 Z M 0.3125 49.71875 L 3.9375 49.71875 L 3.9375 542.214844 L 0.3125 542.214844 Z M 11.105469 49.71875 L 12.011719 49.71875 L 12.011719 542.214844 L 11.105469 542.214844 Z M 80.9375 591.152344 L 767.992188 591.152344 L 767.992188 594.777344 L 80.9375 594.777344 Z M 80.9375 583.078125 L 767.992188 583.078125 L 767.992188 583.984375 L 80.9375 583.984375 Z M 28.917969 591.152344 C 28.84375 577.265625 17.75 566.019531 3.9375 565.566406 L 3.9375 542.085938 L 0.3125 542.085938 L 0.3125 569.265625 L 2.425781 569.191406 L 3.257812 569.191406 C 15.410156 569.191406 25.371094 579.078125 25.371094 591.304688 C 25.371094 591.757812 25.371094 592.210938 25.296875 592.8125 L 25.144531 594.777344 L 81.308594 594.777344 L 81.308594 591.152344 Z M 36.015625 583.078125 C 32.996094 571.226562 23.9375 561.867188 12.085938 558.699219 L 12.085938 542.214844 L 11.183594 542.214844 L 11.183594 559.453125 L 11.558594 559.527344 C 23.332031 562.625 32.464844 571.832031 35.257812 583.679688 L 35.335938 584.058594 L 81.308594 584.058594 L 81.308594 583.152344 Z M 837.875 565.566406 C 823.910156 565.792969 812.589844 577.113281 812.511719 591.152344 L 767.621094 591.152344 L 767.621094 594.777344 L 816.363281 594.777344 L 816.210938 592.8125 C 816.136719 592.210938 816.136719 591.683594 816.136719 591.304688 C 816.136719 579.152344 826.023438 569.191406 838.25 569.191406 C 838.703125 569.191406 839.15625 569.191406 839.609375 569.265625 L 841.570312 569.414062 L 841.570312 542.214844 L 837.949219 542.214844 Z M 829.796875 558.546875 C 817.949219 561.640625 808.4375 571.152344 805.496094 583 L 767.992188 583 L 767.992188 583.90625 L 806.25 583.90625 L 806.324219 583.53125 C 809.191406 571.679688 818.628906 562.171875 830.402344 559.300781 L 830.777344 559.226562 L 830.777344 541.953125 L 829.875 541.953125 Z M 837.875 49.71875 L 841.496094 49.71875 L 841.496094 542.214844 L 837.875 542.214844 Z M 829.796875 49.71875 L 830.703125 49.71875 L 830.703125 542.214844 L 829.796875 542.214844 Z M 812.511719 3.621094 C 812.890625 17.359375 824.0625 28.53125 837.875 28.679688 L 837.875 49.589844 L 841.496094 49.589844 L 841.496094 24.90625 L 839.535156 25.058594 C 839.082031 25.058594 838.628906 25.132812 838.175781 25.132812 C 826.023438 25.132812 816.0625 15.246094 816.0625 3.019531 L 816.0625 1.960938 L 816.136719 0.0742188 L 766.882812 0.0742188 L 766.882812 3.699219 Z M 805.570312 11.699219 C 808.738281 23.472656 817.949219 32.679688 829.796875 35.699219 L 829.796875 49.589844 L 830.703125 49.589844 L 830.703125 35.019531 L 830.324219 34.945312 C 818.550781 32.078125 809.34375 22.945312 806.324219 11.171875 L 806.25 10.792969 L 767.621094 10.792969 L 767.621094 11.699219 Z M 80.9375 0 L 767.992188 0 L 767.992188 3.621094 L 80.9375 3.621094 Z M 80.9375 10.792969 L 767.992188 10.792969 L 767.992188 11.699219 L 80.9375 11.699219 Z M 80.9375 10.792969 " clip-rule="nonzero"/></clipPath></defs><g clip-path="url(#d7d92abaf4)"><g clip-path="url(#9ecb9aba2a)"><path fill="#82b459" d="M 0.3125 0 L 841.59375 0 L 841.59375 594.777344 L 0.3125 594.777344 Z M 0.3125 0 " fill-opacity="1" fill-rule="nonzero"/></g></g></svg>