<svg id="visual" viewBox="0 0 960 200" width="960" height="200" xmlns="http://www.w3.org/2000/svg" xmlns:xlink="http://www.w3.org/1999/xlink" version="1.1">
    <path d="M0 133L13.3 131.8C26.7 130.7 53.3 128.3 80 128.5C106.7 128.7 133.3 131.3 160 130.5C186.7 129.7 213.3 125.3 240 118.8C266.7 112.3 293.3 103.7 320 101.3C346.7 99 373.3 103 400 105.3C426.7 107.7 453.3 108.3 480 111C506.7 113.7 533.3 118.3 560 122.2C586.7 126 613.3 129 640 130.2C666.7 131.3 693.3 130.7 720 127.2C746.7 123.7 773.3 117.3 800 113.3C826.7 109.3 853.3 107.7 880 111C906.7 114.3 933.3 122.7 946.7 126.8L960 131L960 0L946.7 0C933.3 0 906.7 0 880 0C853.3 0 826.7 0 800 0C773.3 0 746.7 0 720 0C693.3 0 666.7 0 640 0C613.3 0 586.7 0 560 0C533.3 0 506.7 0 480 0C453.3 0 426.7 0 400 0C373.3 0 346.7 0 320 0C293.3 0 266.7 0 240 0C213.3 0 186.7 0 160 0C133.3 0 106.7 0 80 0C53.3 0 26.7 0 13.3 0L0 0Z" fill="#fa7268"></path>
    <path d="M0 107L13.3 104.5C26.7 102 53.3 97 80 96.2C106.7 95.3 133.3 98.7 160 97.2C186.7 95.7 213.3 89.3 240 85.5C266.7 81.7 293.3 80.3 320 82.7C346.7 85 373.3 91 400 94C426.7 97 453.3 97 480 99.2C506.7 101.3 533.3 105.7 560 106.8C586.7 108 613.3 106 640 105.5C666.7 105 693.3 106 720 105.3C746.7 104.7 773.3 102.3 800 100C826.7 97.7 853.3 95.3 880 94C906.7 92.7 933.3 92.3 946.7 92.2L960 92L960 0L946.7 0C933.3 0 906.7 0 880 0C853.3 0 826.7 0 800 0C773.3 0 746.7 0 720 0C693.3 0 666.7 0 640 0C613.3 0 586.7 0 560 0C533.3 0 506.7 0 480 0C453.3 0 426.7 0 400 0C373.3 0 346.7 0 320 0C293.3 0 266.7 0 240 0C213.3 0 186.7 0 160 0C133.3 0 106.7 0 80 0C53.3 0 26.7 0 13.3 0L0 0Z" fill="url(#gradient2)"></path>
    <path d="M0 56L13.3 60C26.7 64 53.3 72 80 76.8C106.7 81.7 133.3 83.3 160 79C186.7 74.7 213.3 64.3 240 63.5C266.7 62.7 293.3 71.3 320 71.7C346.7 72 373.3 64 400 63.3C426.7 62.7 453.3 69.3 480 71.7C506.7 74 533.3 72 560 69.7C586.7 67.3 613.3 64.7 640 67C666.7 69.3 693.3 76.7 720 78.8C746.7 81 773.3 78 800 76.2C826.7 74.3 853.3 73.7 880 72.3C906.7 71 933.3 69 946.7 68L960 67L960 0L946.7 0C933.3 0 906.7 0 880 0C853.3 0 826.7 0 800 0C773.3 0 746.7 0 720 0C693.3 0 666.7 0 640 0C613.3 0 586.7 0 560 0C533.3 0 506.7 0 480 0C453.3 0 426.7 0 400 0C373.3 0 346.7 0 320 0C293.3 0 266.7 0 240 0C213.3 0 186.7 0 160 0C133.3 0 106.7 0 80 0C53.3 0 26.7 0 13.3 0L0 0Z" fill="url(#gradient5)"></path>
    <path d="M0 58L13.3 53.8C26.7 49.7 53.3 41.3 80 38.7C106.7 36 133.3 39 160 43C186.7 47 213.3 52 240 53.2C266.7 54.3 293.3 51.7 320 51.7C346.7 51.7 373.3 54.3 400 55.8C426.7 57.3 453.3 57.7 480 53.3C506.7 49 533.3 40 560 40.8C586.7 41.7 613.3 52.3 640 55.5C666.7 58.7 693.3 54.3 720 54.2C746.7 54 773.3 58 800 57.3C826.7 56.7 853.3 51.3 880 47.8C906.7 44.3 933.3 42.7 946.7 41.8L960 41L960 0L946.7 0C933.3 0 906.7 0 880 0C853.3 0 826.7 0 800 0C773.3 0 746.7 0 720 0C693.3 0 666.7 0 640 0C613.3 0 586.7 0 560 0C533.3 0 506.7 0 480 0C453.3 0 426.7 0 400 0C373.3 0 346.7 0 320 0C293.3 0 266.7 0 240 0C213.3 0 186.7 0 160 0C133.3 0 106.7 0 80 0C53.3 0 26.7 0 13.3 0L0 0Z" fill="url(#gradient4)"></path>
    <path d="M0 31L13.3 28.3C26.7 25.7 53.3 20.3 80 17.8C106.7 15.3 133.3 15.7 160 17.2C186.7 18.7 213.3 21.3 240 25C266.7 28.7 293.3 33.3 320 35.2C346.7 37 373.3 36 400 33.7C426.7 31.3 453.3 27.7 480 25.8C506.7 24 533.3 24 560 23C586.7 22 613.3 20 640 18.2C666.7 16.3 693.3 14.7 720 16.8C746.7 19 773.3 25 800 25.3C826.7 25.7 853.3 20.3 880 17.8C906.7 15.3 933.3 15.7 946.7 15.8L960 16L960 0L946.7 0C933.3 0 906.7 0 880 0C853.3 0 826.7 0 800 0C773.3 0 746.7 0 720 0C693.3 0 666.7 0 640 0C613.3 0 586.7 0 560 0C533.3 0 506.7 0 480 0C453.3 0 426.7 0 400 0C373.3 0 346.7 0 320 0C293.3 0 266.7 0 240 0C213.3 0 186.7 0 160 0C133.3 0 106.7 0 80 0C53.3 0 26.7 0 13.3 0L0 0Z" fill="url(#gradient)"></path>
    <defs>
      <linearGradient id="gradient" x1="0" x2="1" y1="0" y2="0">
        <stop offset="0%" stop-color="#5f1782" />
        <stop offset="100%" stop-color="#FF8433" />
      </linearGradient>

      <linearGradient id="gradient2" x1="0" x2="1" y1="0" y2="0">
        <stop offset="0%" stop-color="#FF8433" />
        <stop offset="100%" stop-color="#5f1782" />
      </linearGradient>
    </defs>
    <linearGradient id="gradient3" x1="0" x2="0" y1="0" y2="1">
        <stop offset="0%" stop-color="#FF8433" />
        <stop offset="100%" stop-color="#5f1782" />
      </linearGradient>
      <linearGradient id="gradient4" x1="0%" y1="0%" x2="100%" y2="0%">
        <stop offset="0%" style="stop-color: rgba(133,64,167,1)" />
        <stop offset="100%" style="stop-color: rgba(207,126,74,1)" />
      </linearGradient>
      <linearGradient id="gradient5" x1="0%" y1="0%" x2="100%" y2="0%">
        <stop offset="0%" style="stop-color: rgba(222,148,100,1)" />
        <stop offset="100%" style="stop-color: rgba(161,100,190,1)" />
      </linearGradient>
</svg>