<svg width="1440" height="442" viewBox="0 0 1440 442" fill="none" xmlns="http://www.w3.org/2000/svg">
<path fill-rule="evenodd" clip-rule="evenodd" d="M0 228.774L26.4 255.427C52.8 282.08 106.8 335.387 159.6 317.618C213.6 299.849 266.4 211.005 320.4 211.005C373.2 211.005 427.2 299.849 480 273.196C532.8 246.543 586.8 104.392 639.6 42.201C693.6 -19.9899 746.4 -2.22111 800.4 24.4322C853.2 51.0854 907.2 86.6231 960 139.93C1012.8 193.236 1066.8 264.312 1119.6 264.312C1173.6 264.312 1226.4 193.236 1280.4 193.236C1333.2 193.236 1387.2 264.312 1413.6 299.849L1440 335.387V442H1413.6C1387.2 442 1333.2 442 1280.4 442C1226.4 442 1173.6 442 1119.6 442C1066.8 442 1012.8 442 960 442C907.2 442 853.2 442 800.4 442C746.4 442 693.6 442 639.6 442C586.8 442 532.8 442 480 442C427.2 442 373.2 442 320.4 442C266.4 442 213.6 442 159.6 442C106.8 442 52.8 442 26.4 442H0V228.774Z" fill="#A5DB79" fill-opacity="0.7"/>
</svg>
